PathFileType	4	(X/Y/Z)	 s02c0001.trc
DataRate	CameraRate	NumFrames	NumMarkers	Units	OrigDataRate	OrigDataStartFrame	OrigNumFrames
200	200	4	49	mm	200	1501	2000
Frame#	Time	racr			lacr			c7			jug			rlel			rdr			llel			ldr			s2			lic			ric			lasi			rasi			rpsi			lpsi			rgt			lgt			rth1			rth2			rth3			rth4			rlfc			rmfc			rsh1			rsh2			rsh3			rsh4			rlmal			rmmal			rcal			rtoe			rmt5			rmt1			lth1			lth2			lth4			lth3			llfc			lmfc			lsh1			lsh2			lsh3			lsh4			llmal			lmmal			lcal			ltoe			lmt1			lmt5			
		X1	Y1	Z1	X2	Y2	Z2	X3	Y3	Z3	X4	Y4	Z4	X5	Y5	Z5	X6	Y6	Z6	X7	Y7	Z7	X8	Y8	Z8	X9	Y9	Z9	X10	Y10	Z10	X11	Y11	Z11	X12	Y12	Z12	X13	Y13	Z13	X14	Y14	Z14	X15	Y15	Z15	X16	Y16	Z16	X17	Y17	Z17	X18	Y18	Z18	X19	Y19	Z19	X20	Y20	Z20	X21	Y21	Z21	X22	Y22	Z22	X23	Y23	Z23	X24	Y24	Z24	X25	Y25	Z25	X26	Y26	Z26	X27	Y27	Z27	X28	Y28	Z28	X29	Y29	Z29	X30	Y30	Z30	X31	Y31	Z31	X32	Y32	Z32	X33	Y33	Z33	X34	Y34	Z34	X35	Y35	Z35	X36	Y36	Z36	X37	Y37	Z37	X38	Y38	Z38	X39	Y39	Z39	X40	Y40	Z40	X41	Y41	Z41	X42	Y42	Z42	X43	Y43	Z43	X44	Y44	Z44	X45	Y45	Z45	X46	Y46	Z46	X47	Y47	Z47	X48	Y48	Z48	X49	Y49	Z49	
1501	7.5050	558.846937	1430.069455	564.360543	586.525859	1423.503664	161.004514	538.001985	1480.116385	356.976730	642.855730	1383.395408	364.902441	529.059245	1144.192416	633.680227	622.617808	1018.870303	777.741153	561.442360	1115.041314	126.576637	735.803913	1041.647494	20.831152	472.422970	973.607508	362.999916	630.329539	1018.554893	227.764427	597.446638	1020.903504	513.347165	677.123689	969.381950	259.867589	646.679121	972.350123	493.825647	481.893825	999.925391	407.622376	493.559333	995.799121	323.108700	548.233273	886.634440	537.988266	564.339924	886.319832	204.303807	583.913617	802.492431	551.021246	602.437129	714.887804	548.304557	576.767234	633.383822	558.007607	635.670907	713.003947	530.251414	557.448679	499.309334	515.010028	561.024210	484.424705	410.842767	528.676299	397.989095	532.422148	543.100300	311.300284	517.169047	513.931164	229.965157	513.648071	563.422897	313.601920	483.470399	503.119729	101.185426	499.407026	514.858724	114.461213	421.510847	451.131715	53.599656	442.746117	726.857938	86.726733	498.847493	615.349863	48.357423	537.548126	657.175333	71.538468	436.114482	593.650512	760.075096	187.212426	604.055134	673.209405	193.761987	638.016723	670.774833	209.588053	567.813414	592.639070	202.837995	561.033074	494.958348	223.639193	557.520428	469.044892	321.644053	535.428681	399.070119	199.556160	554.078953	315.626550	215.040166	528.435229	228.692878	214.227979	573.665794	318.229587	250.193940	518.702513	114.057317	231.547159	541.486227	118.700011	309.807215	468.743266	58.244953	277.560660	751.362264	82.044604	249.385455	673.998971	70.471530	302.603053	646.715336	46.444905	196.272892	
1502	7.5100	558.804929	1430.082212	564.346348	586.516421	1423.501062	161.004623	538.022342	1480.115694	356.961656	642.827527	1383.388715	364.910822	529.027829	1144.192152	633.676566	622.636348	1018.881581	777.767916	561.415732	1115.034606	126.584725	735.792594	1041.660226	20.820739	472.409308	973.604017	362.997874	630.318984	1018.563157	227.749197	597.452283	1020.901994	513.340472	677.120831	969.386487	259.869559	646.677432	972.356479	493.826668	481.891549	999.926799	407.624456	493.551082	995.798474	323.128475	548.234522	886.611639	537.985577	564.321041	886.312332	204.308551	583.925449	802.479702	551.028038	602.440669	714.885943	548.300215	576.759890	633.394541	558.012142	635.670875	713.008080	530.250978	557.443340	499.314793	515.012278	561.018753	484.435222	410.841897	528.673829	397.976820	532.428937	543.100600	311.300379	517.169019	513.925726	229.969774	513.654771	563.410162	313.580692	483.479022	503.119095	101.199760	499.403541	516.129269	114.009823	421.338073	451.151738	53.571944	442.741286	726.869376	86.718116	498.848699	615.344557	48.360846	537.554934	657.172776	71.532278	436.106978	593.647413	760.075199	187.212743	604.064339	673.220901	193.780939	638.027789	670.755631	209.595971	567.804701	592.629557	202.858611	561.025665	494.957181	223.642206	557.538301	469.039675	321.637786	535.422958	399.079507	199.573766	554.082615	315.615271	215.047960	528.432251	228.696649	214.227563	573.650819	318.233498	250.189360	518.711328	114.062506	231.551077	541.483960	118.698675	309.822579	468.737287	58.257757	277.552416	751.355171	82.045467	249.402050	673.984253	70.482499	302.606764	646.739829	46.459530	196.273830	
1503	7.5150	558.821681	1430.064325	564.363475	586.487446	1423.513592	160.999454	537.992450	1480.106219	356.989553	642.816158	1383.391869	364.898041	529.022668	1144.183489	633.672775	622.635893	1018.883030	777.767312	561.384953	1115.034913	126.582353	735.747481	1041.666634	20.803174	472.415226	973.600732	362.999433	630.301406	1018.563361	227.755490	597.469787	1020.901971	513.338768	677.119876	969.384668	259.872707	646.663365	972.346748	493.829936	481.904168	999.914968	407.628667	493.559694	995.797823	323.140859	548.223206	886.623041	537.973606	564.319665	886.317415	204.318702	583.923707	802.483509	551.028466	602.437129	714.888315	548.308078	576.762072	633.399680	558.011432	635.682578	713.019379	530.262697	557.438154	499.307526	515.006488	561.050029	484.443775	410.851763	528.671524	397.985982	532.428398	543.093071	311.288346	517.170934	513.948119	229.973469	513.641615	563.396533	313.594740	483.466934	503.126774	101.176439	499.423291	514.840606	114.450532	421.516940	451.152933	53.562405	442.747450	726.869074	86.717406	498.851111	615.335623	48.385549	537.552018	657.182347	71.507640	436.116132	593.638264	760.079926	187.211384	604.062279	673.243236	193.778013	638.013555	670.768729	209.576066	567.817023	592.644859	202.860029	561.026418	494.962338	223.636246	557.531678	469.025933	321.646062	535.418646	399.075146	199.558210	554.089740	315.623168	215.047726	528.415991	228.706834	214.232963	573.662071	318.216431	250.197927	518.695714	114.067594	231.554601	541.475280	118.692306	309.824719	468.735266	58.269156	277.545010	751.358652	82.049591	249.407997	673.981856	70.466857	302.599913	646.751116	46.448036	196.271573	
1504	7.5200	558.802039	1430.065123	564.371937	586.456374	1423.502552	161.010280	537.990865	1480.112384	356.971533	642.784332	1383.391409	364.900757	529.054115	1144.183780	633.676489	622.656765	1018.878272	777.758111	561.340577	1115.035964	126.594413	735.724320	1041.663872	20.780687	472.409617	973.616460	363.004274	630.300719	1018.559298	227.764943	597.437173	1020.899358	513.355311	677.110967	969.377533	259.867038	646.651746	972.344614	493.819665	481.891089	999.911919	407.637526	493.552422	995.807501	323.122883	548.239799	886.639384	537.997065	564.318891	886.318669	204.308882	583.933857	802.493008	551.037389	602.447748	714.888490	548.303473	576.757412	633.404189	558.013279	635.674463	712.993543	530.256201	557.446604	499.306465	515.009568	561.080592	484.452995	410.844421	528.680802	398.003942	532.436244	543.094055	311.290244	517.172041	513.950239	229.969366	513.654607	563.408233	313.581850	483.458310	503.113986	101.207277	499.408471	514.846563	114.452320	421.511143	451.147545	53.580009	442.751080	726.881014	86.707733	498.860371	615.349833	48.357435	537.548164	657.191673	71.526787	436.101867	593.622979	760.072295	187.209912	604.037697	673.241260	193.781531	638.025933	670.768780	209.618158	567.817613	592.636846	202.852245	561.025562	494.956416	223.641450	557.529445	469.030944	321.646148	535.428286	399.057606	199.579221	554.078124	315.614484	215.038875	528.399286	228.686080	214.238315	573.666906	318.225935	250.190449	518.709711	114.064691	231.554007	541.480826	118.700985	309.821278	468.734895	58.248514	277.558449	751.362337	82.056455	249.395860	673.970037	70.478543	302.604825	646.742216	46.434203	196.283427	
